<svg width="361" height="76" viewBox="0 0 361 76" fill="none" xmlns="http://www.w3.org/2000/svg">
<path d="M30.4762 74.7494C44.5817 74.7494 53.1274 64.7623 53.1274 53.0249C53.1274 47.2591 49.112 39.2282 39.7426 36.8602C47.0528 34.0802 49.4208 28.2115 49.4208 23.5783C49.4208 11.429 41.184 3.81 28.417 3.81H5.97167C2.16215 3.81 0.10296 6.69288 0 10.1935V68.3659C0 71.7636 2.16215 74.7494 5.97167 74.7494H30.4762ZM15.1351 32.124V17.0918H26.8726C31.2999 17.0918 33.565 20.1806 33.565 24.6079C33.565 28.8293 30.888 32.124 26.9755 32.124H15.1351ZM29.3436 44.0674C34.6975 44.0674 37.2715 48.5976 37.2715 52.613C37.2715 56.8344 34.6976 61.4676 29.6525 61.4676H15.1351V44.0674H29.3436Z" fill="#1E1B1E"/>
<path d="M90.5555 25.74C85.6134 25.74 80.5684 28.8288 77.8914 37.7863V32.5353C77.8914 28.9317 74.5967 26.1518 70.6842 26.1518C66.8747 26.1518 63.5799 29.0347 63.477 32.5353V68.8802C63.5799 72.3809 66.8747 75.2638 70.6842 75.2638C74.5967 75.2638 77.8914 72.4838 77.8914 68.8802V57.0398C78.0973 44.9935 80.7743 38.8159 88.8052 38.8159C89.7318 38.8159 91.2762 38.9189 92.3058 38.9189C95.4976 38.9189 98.8953 37.2715 99.4101 33.6679C100.337 26.8725 95.2916 25.74 90.5555 25.74Z" fill="#1E1B1E"/>
<path d="M140.443 33.462C136.325 27.0785 129.118 25.74 126.029 25.74C113.777 25.74 102.657 34.6975 102.657 50.6563C102.657 66.6151 113.777 75.6756 126.029 75.6756C131.486 75.6756 137.355 72.9986 140.443 67.9536V68.8802C140.546 72.3809 143.841 75.2637 147.651 75.2637C151.563 75.2637 154.858 72.4838 154.858 68.8802V32.5353C154.858 28.9317 151.563 26.1518 147.651 26.1518C143.841 26.1518 140.546 29.0347 140.443 32.5353V33.462ZM117.483 50.7593C117.483 44.3757 121.602 38.61 128.809 38.61C135.295 38.61 140.546 44.3757 140.546 50.7593C140.546 57.1428 135.295 62.9086 128.809 62.9086C121.602 62.9086 117.483 57.1428 117.483 50.7593Z" fill="#1E1B1E"/>
<path d="M179.307 50.8622V50.5533C179.307 43.8609 184.867 39.6396 191.045 39.6396C193.619 39.6396 196.09 40.3603 198.149 41.4929C200.723 42.9343 204.945 43.5521 207.519 40.9781C210.401 38.0952 209.99 32.8442 206.592 30.4762C202.268 27.3874 196.811 25.74 191.045 25.74C177.248 25.74 164.687 35.4182 164.687 50.5533V50.8622C164.687 65.9973 177.248 75.6756 191.045 75.6756C196.811 75.6756 202.268 74.0282 206.592 70.9394C209.99 68.5714 210.401 63.3204 207.519 60.4375C204.945 57.8635 200.723 58.4813 198.149 59.9227C196.09 61.0553 193.619 61.776 191.045 61.776C184.867 61.776 179.307 57.5546 179.307 50.8622Z" fill="#1E1B1E"/>
<path d="M249.526 73.2046C251.586 75.6756 256.425 75.9845 258.999 73.8223C261.881 71.6602 262.087 67.3358 259.41 64.453L243.555 47.8764L254.777 36.9626C257.248 34.0798 256.528 29.9614 253.851 27.7992C251.071 25.5341 246.849 26.0489 244.584 28.6229L233.362 39.9485V6.38352C233.362 2.77992 230.067 0 226.154 0C222.345 0 219.05 2.88288 218.947 6.38352V68.8802C219.05 72.3809 222.345 75.2638 226.154 75.2638C230.067 75.2638 233.362 72.4838 233.362 68.8802V55.8043L249.526 73.2046Z" fill="#1E1B1E"/>
<path d="M280.743 46.4349C281.979 40.3603 286.097 37.6833 291.451 37.6833C296.805 37.6833 300.82 40.5662 301.541 46.4349H280.743ZM309.778 61.776C307.719 59.4079 304.012 58.7901 300.717 61.0553C297.731 63.1145 295.26 63.3204 292.378 63.3204C287.332 63.3204 281.258 60.9523 280.537 55.3925H311.528C313.793 55.3925 315.955 53.5392 315.955 50.9652C315.955 35.8301 305.042 25.74 291.348 25.74C277.551 25.74 266.226 35.4182 266.226 50.5533C266.226 65.6885 277.551 75.6756 291.348 75.6756C297.011 75.6756 303.085 74.543 307.925 71.3513C311.425 69.2921 312.455 64.8648 309.778 61.776Z" fill="#1E1B1E"/>
<path d="M351.793 25.74C346.851 25.74 341.806 28.8288 339.129 37.7863V32.5353C339.129 28.9317 335.834 26.1518 331.921 26.1518C328.112 26.1518 324.817 29.0347 324.714 32.5353V68.8802C324.817 72.3809 328.112 75.2638 331.921 75.2638C335.834 75.2638 339.129 72.4838 339.129 68.8802V57.0398C339.335 44.9935 342.012 38.8159 350.042 38.8159C350.969 38.8159 352.513 38.9189 353.543 38.9189C356.735 38.9189 360.133 37.2715 360.647 33.6679C361.574 26.8725 356.529 25.74 351.793 25.74Z" fill="#1E1B1E"/>
</svg>
