<svg width="54" height="71" viewBox="0 0 54 71" fill="none" xmlns="http://www.w3.org/2000/svg">
<path d="M30.4762 70.9394C44.5817 70.9394 53.1274 60.9523 53.1274 49.2149C53.1274 43.4491 49.112 35.4182 39.7426 33.0502C47.0528 30.2702 49.4208 24.4015 49.4208 19.7683C49.4208 7.61904 41.184 0 28.417 0H5.97167C2.16215 0 0.10296 2.88288 0 6.38352V64.5559C0 67.9536 2.16215 70.9394 5.97167 70.9394H30.4762ZM15.1351 28.314V13.2818H26.8726C31.2999 13.2818 33.565 16.3706 33.565 20.7979C33.565 25.0193 30.888 28.314 26.9755 28.314H15.1351ZM29.3436 40.2574C34.6975 40.2574 37.2715 44.7876 37.2715 48.803C37.2715 53.0244 34.6976 57.6576 29.6525 57.6576H15.1351V40.2574H29.3436Z" fill="#359EFF"/>
</svg>
